# xmcd CD database file
#
# Track frame offsets:
#	150
#	27095
#	53897
#	81212
#	103920
#	126922
#	148622
#	170700
#	193837
#	216985
#	254617
#	281717
#	305960
#	328642
#
# Disc length: 4670 seconds
#
# Revision: 0
# Processed by: cddbd v1.4PL0 Copyright (c) Steve Scherf et al.
# Submitted via: CDex 1.51
#
DISCID=e3123c0e
DTITLE=Dean Fraser - Jesus Loves Me
DYEAR=1900
DGENRE=Jazz
TTITLE0=Amazing Grace
TTITLE1=Give Thanks And Praise
TTITLE2=How Great Thou Art
TTITLE3=A Mighty Fortress 
TTITLE4=You Are The Reason Why
TTITLE5=Rock Of Ages
TTITLE6=What A Friend
TTITLE7=Jehovah
TTITLE8=Rugged Cross
TTITLE9=Jesus Loves Me
TTITLE10=God Is Amazing
TTITLE11=Can't Even Walk
TTITLE12=A Mighty Fortress (Accapella)
TTITLE13=Can't Even Walk (Accapella)
EXTD=
EXTT0=
EXTT1=
EXTT2=
EXTT3=
EXTT4=
EXTT5=
EXTT6=
EXTT7=
EXTT8=
EXTT9=
EXTT10=
EXTT11=
EXTT12=
EXTT13=
PLAYORDER=
